# xmcd
# 
# Track frame offsets:
#     150
#     16997
#     33522
#     43300
#     59797
#     71892
#     84835
#     99145
#     111422
#     124240
# 
# Disc length: 1805
# 
# Revision: 7
# Processed by: cddbd v1.5.2PL0 Copyright (c) Steve Scherf et al.
# Submitted via: fre:ac v1.1beta1pre3
# 
DISCID=8b070b0a
DTITLE=Merle Haggard - Super Hits Volume 2
DYEAR=1994
DGENRE=Country
TTITLE0=Today I Started Loving You Again
TTITLE1=I Think I'll Just Stay Here And Drink
TTITLE2=Mama Tried
TTITLE3=Daddy Frank ( The Guitar Man )
TTITLE4=Okie From Muskogee
TTITLE5=The Fightin' Side Of Me
TTITLE6=I'm A Lonesome Fugitive
TTITLE7=The Bottle Let Me Down
TTITLE8=Swinging Doors
TTITLE9=( All My Friends Are Gonna Be ) Strangers
EXTD=YEAR: 1994
EXTT0=
EXTT1=
EXTT2=
EXTT3=
EXTT4=
EXTT5=
EXTT6=
EXTT7=
EXTT8=
EXTT9=
PLAYORDER=
